<svg width="12" height="12" viewBox="0 0 12 12" fill="none" xmlns="http://www.w3.org/2000/svg">
<path d="M2.11616 9.88384C1.08555 8.85323 0.50455 7.45674 0.5 5.99926C0.500147 4.91172 0.822707 3.84863 1.42692 2.94437C2.03126 2.0399 2.89025 1.33495 3.89524 0.918665C4.90023 0.502383 6.0061 0.393465 7.073 0.605684C8.13989 0.817902 9.1199 1.34173 9.88909 2.11092C10.6583 2.8801 11.1821 3.86011 11.3943 4.92701C11.6065 5.9939 11.4976 7.09977 11.0813 8.10476C10.6651 9.10976 9.96011 9.96874 9.05564 10.5731C8.1514 11.1773 7.08835 11.4998 6.00084 11.5C4.54333 11.4955 3.14679 10.9145 2.11616 9.88384Z" stroke="#808191"/>
<path d="M5.75 5.75H6.25V8.5H5.75V5.75Z" stroke="#808191"/>
<path d="M6.25 3.75C6.25 3.88807 6.13807 4 6 4C5.86193 4 5.75 3.88807 5.75 3.75C5.75 3.61193 5.86193 3.5 6 3.5C6.13807 3.5 6.25 3.61193 6.25 3.75Z" stroke="#808191"/>
</svg>
